<svg width="18" height="18" viewBox="0 0 18 18" fill="none" xmlns="http://www.w3.org/2000/svg">
<path d="M12.6333 10.6666C12.7 10.1166 12.75 9.5666 12.75 8.99993C12.75 8.43326 12.7 7.88326 12.6333 7.33326H15.45C15.5833 7.8666 15.6666 8.42493 15.6666 8.99993C15.6666 9.57493 15.5833 10.1333 15.45 10.6666H12.6333ZM11.1583 15.2999C11.6583 14.3749 12.0416 13.3749 12.3083 12.3333H14.7666C13.9666 13.7083 12.6916 14.7749 11.1583 15.2999ZM10.95 10.6666H7.04996C6.96663 10.1166 6.91663 9.5666 6.91663 8.99993C6.91663 8.43326 6.96663 7.87493 7.04996 7.33326H10.95C11.025 7.87493 11.0833 8.43326 11.0833 8.99993C11.0833 9.5666 11.025 10.1166 10.95 10.6666ZM8.99996 15.6333C8.30829 14.6333 7.74996 13.5249 7.40829 12.3333H10.5916C10.25 13.5249 9.69163 14.6333 8.99996 15.6333ZM5.66663 5.6666H3.23329C4.02496 4.28326 5.30829 3.2166 6.83329 2.69993C6.33329 3.62493 5.95829 4.62493 5.66663 5.6666ZM3.23329 12.3333H5.66663C5.95829 13.3749 6.33329 14.3749 6.83329 15.2999C5.30829 14.7749 4.02496 13.7083 3.23329 12.3333ZM2.54996 10.6666C2.41663 10.1333 2.33329 9.57493 2.33329 8.99993C2.33329 8.42493 2.41663 7.8666 2.54996 7.33326H5.36663C5.29996 7.88326 5.24996 8.43326 5.24996 8.99993C5.24996 9.5666 5.29996 10.1166 5.36663 10.6666H2.54996ZM8.99996 2.35826C9.69163 3.35826 10.25 4.47493 10.5916 5.6666H7.40829C7.74996 4.47493 8.30829 3.35826 8.99996 2.35826ZM14.7666 5.6666H12.3083C12.0416 4.62493 11.6583 3.62493 11.1583 2.69993C12.6916 3.22493 13.9666 4.28326 14.7666 5.6666ZM8.99996 0.666595C4.39163 0.666595 0.666626 4.4166 0.666626 8.99993C0.666626 11.2101 1.5446 13.3297 3.1074 14.8925C3.88122 15.6663 4.79988 16.2801 5.81093 16.6989C6.82198 17.1177 7.90561 17.3333 8.99996 17.3333C11.2101 17.3333 13.3297 16.4553 14.8925 14.8925C16.4553 13.3297 17.3333 11.2101 17.3333 8.99993C17.3333 7.90558 17.1177 6.82195 16.699 5.8109C16.2802 4.79985 15.6663 3.88119 14.8925 3.10737C14.1187 2.33355 13.2 1.71972 12.189 1.30093C11.1779 0.882144 10.0943 0.666595 8.99996 0.666595Z" fill="#ADBFDF"/>
</svg>
