<svg width="18" height="18" viewBox="0 0 18 18" fill="none" xmlns="http://www.w3.org/2000/svg">
<path d="M12.6332 10.6665C12.6998 10.1165 12.7498 9.5665 12.7498 8.99984C12.7498 8.43317 12.6998 7.88317 12.6332 7.33317H15.4498C15.5832 7.8665 15.6665 8.42484 15.6665 8.99984C15.6665 9.57484 15.5832 10.1332 15.4498 10.6665H12.6332ZM11.1582 15.2998C11.6582 14.3748 12.0415 13.3748 12.3082 12.3332H14.7665C13.9665 13.7082 12.6915 14.7748 11.1582 15.2998ZM10.9498 10.6665H7.04984C6.9665 10.1165 6.9165 9.5665 6.9165 8.99984C6.9165 8.43317 6.9665 7.87484 7.04984 7.33317H10.9498C11.0248 7.87484 11.0832 8.43317 11.0832 8.99984C11.0832 9.5665 11.0248 10.1165 10.9498 10.6665ZM8.99984 15.6332C8.30817 14.6332 7.74984 13.5248 7.40817 12.3332H10.5915C10.2498 13.5248 9.6915 14.6332 8.99984 15.6332ZM5.6665 5.6665H3.23317C4.02484 4.28317 5.30817 3.2165 6.83317 2.69984C6.33317 3.62484 5.95817 4.62484 5.6665 5.6665ZM3.23317 12.3332H5.6665C5.95817 13.3748 6.33317 14.3748 6.83317 15.2998C5.30817 14.7748 4.02484 13.7082 3.23317 12.3332ZM2.54984 10.6665C2.4165 10.1332 2.33317 9.57484 2.33317 8.99984C2.33317 8.42484 2.4165 7.8665 2.54984 7.33317H5.3665C5.29984 7.88317 5.24984 8.43317 5.24984 8.99984C5.24984 9.5665 5.29984 10.1165 5.3665 10.6665H2.54984ZM8.99984 2.35817C9.6915 3.35817 10.2498 4.47484 10.5915 5.6665H7.40817C7.74984 4.47484 8.30817 3.35817 8.99984 2.35817ZM14.7665 5.6665H12.3082C12.0415 4.62484 11.6582 3.62484 11.1582 2.69984C12.6915 3.22484 13.9665 4.28317 14.7665 5.6665ZM8.99984 0.666504C4.3915 0.666504 0.666504 4.4165 0.666504 8.99984C0.666504 11.21 1.54448 13.3296 3.10728 14.8924C3.8811 15.6662 4.79976 16.28 5.81081 16.6988C6.82186 17.1176 7.90549 17.3332 8.99984 17.3332C11.21 17.3332 13.3296 16.4552 14.8924 14.8924C16.4552 13.3296 17.3332 11.21 17.3332 8.99984C17.3332 7.90549 17.1176 6.82186 16.6988 5.81081C16.28 4.79976 15.6662 3.8811 14.8924 3.10728C14.1186 2.33346 13.1999 1.71963 12.1889 1.30084C11.1778 0.882052 10.0942 0.666504 8.99984 0.666504Z" fill="#ADBFDF"/>
</svg>
